<svg width="14" height="13" viewBox="0 0 14 13" fill="none" xmlns="http://www.w3.org/2000/svg">
<path d="M11.6956 0.390344C11.9349 0.137207 12.2533 -0.00273714 12.5837 4.05729e-05C12.9141 0.00281828 13.2306 0.148101 13.4664 0.405233C13.7023 0.662364 13.839 1.01123 13.8477 1.37822C13.8564 1.74521 13.7365 2.10162 13.5132 2.37224L6.73514 11.791C6.61859 11.9304 6.47792 12.0424 6.32154 12.1201C6.16517 12.1978 5.99629 12.2396 5.82502 12.2432C5.65375 12.2467 5.4836 12.2118 5.32474 12.1406C5.16589 12.0694 5.02158 11.9633 4.90046 11.8287L0.405511 6.83433C0.280334 6.70473 0.179933 6.54845 0.110297 6.3748C0.040661 6.20115 0.00321663 6.01369 0.00019828 5.82361C-0.00282007 5.63353 0.0286495 5.44473 0.0927289 5.26845C0.156808 5.09218 0.252185 4.93206 0.37317 4.79763C0.494154 4.6632 0.638268 4.55723 0.796913 4.48603C0.955558 4.41483 1.12549 4.37986 1.29656 4.38322C1.46763 4.38657 1.63634 4.42818 1.79262 4.50555C1.94891 4.58292 2.08957 4.69448 2.20621 4.83356L5.76344 8.78414L11.6633 0.43187C11.6739 0.417338 11.6852 0.403474 11.6973 0.390344H11.6956Z" fill="white"/>
</svg>
