<svg width="49" height="54" viewBox="0 0 49 54" fill="none" xmlns="http://www.w3.org/2000/svg">
<path d="M40.3003 11.1945H8.06027C5.83457 11.1945 4.03027 13.1992 4.03027 15.6722V38.0611C4.03027 40.5341 5.83457 42.5389 8.06027 42.5389H40.3003C42.526 42.5389 44.3303 40.5341 44.3303 38.0611V15.6722C44.3303 13.1992 42.526 11.1945 40.3003 11.1945Z" fill="#CCCCCC"/>
<path d="M44.3303 17.9111H4.03027V24.6277H44.3303V17.9111Z" fill="#B3B3B3"/>
<path d="M38.2847 31.3445H34.2547C33.1419 31.3445 32.2397 32.3469 32.2397 33.5834C32.2397 34.8199 33.1419 35.8223 34.2547 35.8223H38.2847C39.3976 35.8223 40.2997 34.8199 40.2997 33.5834C40.2997 32.3469 39.3976 31.3445 38.2847 31.3445Z" fill="#B3B3B3"/>
</svg>
