<svg width="49" height="49" viewBox="0 0 49 49" fill="none" xmlns="http://www.w3.org/2000/svg">
<path fill-rule="evenodd" clip-rule="evenodd" d="M3.0225 10.075H9.0675C10.7368 10.075 12.09 11.4282 12.09 13.0975V35.2625C12.09 36.9318 10.7368 38.285 9.0675 38.285H3.0225C1.35322 38.285 0 36.9318 0 35.2625V13.0975C0 11.4282 1.35322 10.075 3.0225 10.075ZM37.2775 10.075H45.3375C47.0068 10.075 48.36 11.4282 48.36 13.0975V35.2625C48.36 36.9318 47.0068 38.285 45.3375 38.285H37.2775C35.6082 38.285 34.255 36.9318 34.255 35.2625V13.0975C34.255 11.4282 35.6082 10.075 37.2775 10.075Z" fill="#CCCCCC"/>
<path d="M27.2026 10.075H19.1426C17.4733 10.075 16.1201 11.4282 16.1201 13.0975V35.2625C16.1201 36.9318 17.4733 38.285 19.1426 38.285H27.2026C28.8719 38.285 30.2251 36.9318 30.2251 35.2625V13.0975C30.2251 11.4282 28.8719 10.075 27.2026 10.075Z" fill="#B3B3B3"/>
</svg>
