<svg
  width="544"
  height="393"
  viewBox="0 0 544 393"
  fill="none"
  xmlns="http://www.w3.org/2000/svg"
>
  <path
    d="M424.66 382.225C425.18 381.355 425.66 380.495 426.22 379.545C429.85 369.605 428.55 363.475 426.91 359.755C420.43 345.235 402.72 337.455 363.75 331.155C360.9 330.715 343.1 325.105 336.1 308.075C331.52 297.015 334.1 285.955 335.93 279.305C342.15 255.795 356.06 253.805 363.49 234.455C369.63 218.455 369.37 195.735 357.36 178.795C342.36 157.535 313.81 152.355 292.81 156.585C272.25 160.735 258.08 174.655 250.99 183.115C245.324 170.355 237.548 158.641 227.99 148.465C199.04 117.615 154.72 103.015 114.45 108.545C69.4499 114.765 41.5299 144.495 27.5299 159.445C-51.0101 243.355 -31.1301 372.025 -26.9001 396.445H543.21C513.31 392.165 466.4 387.405 424.66 382.225Z"
    fill="#02A4D3"
  />
  <path
    d="M71.88 376.775C75.42 384.125 81.64 388.015 84.32 389.775C89.4676 392.893 95.2299 394.858 101.21 395.535C102.73 395.712 104.26 395.795 105.79 395.785C152.02 395.785 174.48 396.485 191.16 396.485C230.04 396.485 291.9 396.305 373.47 396.305C384.7 390.255 432.31 361.485 450.89 298.915C452.18 294.685 476.11 208.265 432.83 158.055C430.15 154.945 403.1 124.355 374.68 131.525C344.68 139.045 340.63 181.995 304.08 190.635C288.53 194.355 275.48 189.855 271.08 188.305C235.08 175.515 234.7 137.055 202.99 126.515C186.58 121.075 165.06 125.655 152.79 141.375C135.6 163.375 138.62 200.925 153.79 223.995C162.95 237.825 172.54 241.535 177.9 259.165C179.8 265.385 183.6 278.695 177.72 292.955C169.43 312.955 148.52 319.485 145.23 320.005C106.53 326.225 76.28 335.555 71.23 353.535C67.13 367.015 71.88 376.775 71.88 376.775Z"
    fill="#015F7F"
  />
  <path
    d="M342.75 362.175C352.35 360.795 355.28 355.775 365.82 356.125C374.38 356.385 375.93 359.845 386.13 362.175C391.66 363.475 408.59 367.355 417.93 359.845C428.93 350.845 429.16 332.185 421.12 318.795C411.36 302.715 396.84 295.205 391.92 279.995C389.84 273.595 391.14 271.175 390.71 261.845C389.24 229.175 373.77 193.315 362.02 193.845C357.7 194.015 354.76 199.025 350.7 206.025C345.09 215.535 345.09 222.365 341.7 241.025C338.93 255.975 337.64 263.495 334.52 271.445C330.03 283.115 326.66 285.015 320.27 296.855C310.68 314.395 299.96 334.015 307.27 347.665C313.21 358.545 330.31 363.955 342.75 362.175Z"
    fill="#F89C53"
  />
  <path
    d="M377.14 396.305C377.14 396.305 362.45 363.555 365.31 332.015C368.17 300.475 371.53 306.785 367.03 278.785C362.53 250.785 364.96 229.875 364.96 229.875C364.96 229.875 355.02 268.155 361.33 290.275C367.64 312.395 351.74 321.275 352.86 355.695C353.98 390.115 352.78 396.305 352.78 396.305H377.14Z"
    fill="#465477"
  />
  <path
    d="M366.43 322.165L398.05 313.345L365.31 332.275L366.43 322.165Z"
    fill="#465477"
  />
  <path
    d="M363.4 308.595L339.64 294.425L363.4 298.955V308.635V308.595Z"
    fill="#465477"
  />
  <path
    d="M438.83 348.695C446.9 348.697 454.789 346.305 461.5 341.822C468.21 337.339 473.44 330.966 476.527 323.51C479.614 316.054 480.42 307.849 478.844 299.935C477.267 292.02 473.378 284.751 467.669 279.048C461.959 273.344 454.687 269.462 446.771 267.893C438.855 266.324 430.651 267.138 423.198 270.233C415.745 273.328 409.377 278.564 404.901 285.278C400.424 291.993 398.04 299.885 398.05 307.955C398.063 318.763 402.365 329.123 410.011 336.762C417.657 344.4 428.022 348.692 438.83 348.695Z"
    fill="#F26F6F"
  />
  <path
    d="M439.87 319.955L471.67 311.145L438.83 330.065L439.87 319.955Z"
    fill="#465477"
  />
  <path
    d="M438.83 307.955L414.99 293.785L438.83 302.855V307.955Z"
    fill="#465477"
  />
  <path
    d="M439.61 285.265L432.01 396.265H445.66L439.61 285.265Z"
    fill="#465477"
  />
  <path
    d="M91.2099 380.665L90.3499 385.595L104.26 390.175L105.12 390.605C105.331 390.705 105.501 390.877 105.599 391.089C105.697 391.301 105.717 391.541 105.657 391.767C105.596 391.993 105.458 392.191 105.267 392.326C105.076 392.46 104.843 392.524 104.61 392.505L91.4699 393.375C89.3999 393.545 82.9199 393.715 81.3599 392.675C79.6399 391.555 79.9799 391.675 79.7199 390.175L80.3299 386.885L81.0999 380.235L91.2099 380.665Z"
    fill="#FAB074"
  />
  <path
    d="M80.4299 385.415C80.4299 385.415 78.0099 393.715 82.2499 395.355C85.9599 396.745 95.8999 396.355 103.76 396.045C106.27 395.965 110.76 395.535 110.24 393.455C109.64 391.125 98.1399 388.185 98.1399 388.185C98.6599 388.355 100.48 388.965 101.08 389.135C102.55 389.655 100.82 390.345 98.8399 390.435C93.7399 390.695 79.3999 391.035 80.4299 385.415Z"
    fill="#544A89"
  />
  <path
    d="M112.31 210.165C112.31 210.165 114.47 241.705 105.83 296.675L90.6299 383.605L80.6899 383.175C80.6899 383.175 79.7399 315.175 85.9599 293.555C85.3599 278.265 80.4299 265.645 77.7499 252.075C75.0179 248.962 73.0915 245.226 72.1399 241.195C70.1399 234.365 70.84 220.965 74.73 215.355C81.04 205.955 86.31 205.505 112.31 210.165Z"
    fill="#453C73"
  />
  <path
    opacity="0.4"
    d="M72.5699 220.275C72.5699 220.275 77.8399 228.665 83.3699 229.955C89.2499 231.425 95.9799 294.855 95.9799 294.855L100.48 321.385C100.48 321.385 96.4799 294.765 90.9699 282.585C88.8099 277.745 83.0299 263.315 78.2699 253.115C76.1999 250.355 74.3799 248.885 72.9999 244.305C70.2099 234.955 71.7899 227.535 72.5699 220.275Z"
    fill="#403A65"
  />
  <path
    d="M121.99 381.275L122.99 386.375L136.81 390.865L137.68 391.295C137.893 391.395 138.063 391.567 138.162 391.781C138.26 391.995 138.28 392.236 138.218 392.463C138.156 392.69 138.016 392.888 137.822 393.021C137.629 393.155 137.394 393.217 137.16 393.195L124.03 394.065C121.95 394.235 115.47 394.405 113.92 393.375C112.19 392.245 112.54 392.375 112.27 390.865L112.88 387.585L112.54 380.755L121.99 381.275Z"
    fill="#FAB074"
  />
  <path
    d="M112.83 385.955C112.83 385.955 110.59 394.425 114.83 396.065C118.55 397.455 128.48 397.065 136.35 396.765C138.85 396.675 143.35 396.245 142.83 394.165C142.22 391.835 130.73 388.895 130.73 388.895C131.33 389.065 133.06 389.675 133.67 389.845C135.14 390.365 133.41 391.055 131.42 391.145C126.31 391.385 113.09 391.465 112.83 385.955Z"
    fill="#544A89"
  />
  <path
    d="M326.34 396.395H154.91C151.175 396.392 147.593 394.906 144.953 392.264C142.313 389.622 140.83 386.04 140.83 382.305V63.9547C140.83 60.2196 142.313 56.6372 144.953 53.9951C147.593 51.353 151.175 49.8674 154.91 49.8647H326.34C330.075 49.8674 333.656 51.353 336.297 53.9951C338.937 56.6372 340.42 60.2196 340.42 63.9547V382.305C340.391 386.031 338.899 389.597 336.265 392.233C333.631 394.868 330.066 396.363 326.34 396.395Z"
    fill="#4B4C61"
  />
  <path d="M319.08 72.8547H162.08V234.795H319.08V72.8547Z" fill="white" />
  <path
    d="M240.71 221.055C250.203 221.055 259.484 218.24 267.377 212.965C275.271 207.691 281.423 200.194 285.056 191.424C288.689 182.653 289.64 173.001 287.788 163.69C285.936 154.379 281.364 145.827 274.651 139.114C267.938 132.401 259.385 127.829 250.074 125.977C240.763 124.125 231.112 125.075 222.341 128.708C213.57 132.341 206.074 138.494 200.799 146.387C195.525 154.281 192.71 163.561 192.71 173.055C192.71 185.785 197.767 197.994 206.769 206.996C215.771 215.998 227.98 221.055 240.71 221.055Z"
    fill="#8FDD66"
  />
  <path
    d="M220.84 175.775L239.76 188.045L260.5 154.425"
    stroke="white"
    stroke-width="12.85"
    stroke-miterlimit="10"
    stroke-linecap="round"
  />
  <path
    opacity="0.3"
    d="M140.66 328.555V63.9547C140.659 62.1049 141.022 60.2729 141.729 58.5635C142.436 56.8541 143.473 55.3007 144.78 53.9922C146.088 52.6837 147.641 51.6457 149.349 50.9375C151.058 50.2293 152.89 49.8647 154.74 49.8647H302.49L140.66 328.555Z"
    fill="white"
  />
  <path
    opacity="0.55"
    d="M318.91 251.125H162.08V274.955H318.91V251.125Z"
    fill="white"
  />
  <path
    d="M120.35 217.955C120.35 217.955 116.64 212.765 99.53 211.215C95.7146 210.813 91.932 210.145 88.2099 209.215C86.0637 210.204 84.1048 211.557 82.42 213.215C80.86 214.765 77.15 218.315 76.2 226.525C75.475 232.078 76.0361 237.723 77.84 243.025C79.14 247.515 82.5099 250.635 85.1899 254.025C93.3899 276.925 94.78 288.415 95.98 292.735C97.89 317.625 112.66 384.335 112.66 384.335H122.6C122.6 384.335 119.92 298.955 119.92 292.825C119.92 279.345 118.02 255.315 118.62 238.375C119.624 231.611 120.202 224.791 120.35 217.955Z"
    fill="#544A89"
  />
  <path
    opacity="0.55"
    d="M318.91 282.495H162.08V306.345H318.91V282.495Z"
    fill="white"
  />
  <path
    opacity="0.55"
    d="M318.91 313.955H162.08V337.805H318.91V313.955Z"
    fill="white"
  />
  <path d="M34.9799 276.795H-2.43006V307.215H34.9799V276.795Z" fill="#A0C8EA" />
  <path
    d="M20.2099 280.685L17.7899 304.685H-3.47006V307.625H26.6899V303.825H34.9799V299.955H22.9799L24.7099 280.685H20.2099Z"
    fill="#BAD7F0"
  />
  <path d="M37.1399 307.215H-7.79006V337.635H37.1399V307.215Z" fill="#6E82A8" />
  <path
    d="M1.36994 307.215V324.845H17.0099L15.7199 338.405H19.4299L21.2099 321.295H3.35994V307.215H1.36994Z"
    fill="#65779A"
  />
  <path d="M318.91 349.475H267.67V371.675H318.91V349.475Z" fill="#3ABD9D" />
  <path
    d="M263.09 168.605H160.96C158.043 168.605 155.245 167.446 153.182 165.383C151.119 163.32 149.96 160.522 149.96 157.605V103.355C149.96 100.437 151.119 97.6395 153.182 95.5766C155.245 93.5137 158.043 92.3547 160.96 92.3547H262.96C265.877 92.3547 268.675 93.5137 270.738 95.5766C272.801 97.6395 273.96 100.437 273.96 103.355V157.625C273.974 159.061 273.704 160.487 273.164 161.818C272.625 163.15 271.826 164.361 270.815 165.382C269.805 166.403 268.601 167.214 267.275 167.767C265.949 168.32 264.527 168.605 263.09 168.605Z"
    fill="#02A4D3"
  />
  <path d="M227.84 126.345H158.71V139.345H227.84V126.345Z" fill="#ECE9E7" />
  <path d="M274.06 108.365H149.81V121.365H274.06V108.365Z" fill="#ECE9E7" />
  <path d="M265.85 349.475H214.62V371.675H265.85V349.475Z" fill="#F6CA65" />
  <path d="M212.63 349.475H161.39V371.675H212.63V349.475Z" fill="#F26F6F" />
  <path
    d="M204.42 40.0147C204.272 35.3468 205.062 30.6967 206.744 26.3396C208.426 21.9826 210.965 18.0074 214.21 14.6492C217.456 11.291 221.342 8.61818 225.639 6.78901C229.937 4.95983 234.557 4.01148 239.227 4.0001C243.898 3.98873 248.523 4.91456 252.829 6.72278C257.135 8.531 261.034 11.1848 264.296 14.5272C267.558 17.8695 270.116 21.8324 271.819 26.1811C273.522 30.5299 274.335 35.1761 274.21 39.8447"
    stroke="#F26F6F"
    stroke-width="6.12"
    stroke-miterlimit="10"
    stroke-linecap="round"
  />
  <path
    d="M219.37 40.7947C219.477 35.3842 221.698 30.2305 225.558 26.4377C229.418 22.6448 234.609 20.5143 240.021 20.5025C245.432 20.4907 250.633 22.5986 254.51 26.3747C258.386 30.1508 260.63 35.2947 260.76 40.7047"
    stroke="#F28282"
    stroke-width="6.12"
    stroke-miterlimit="10"
    stroke-linecap="round"
  />
  <path
    d="M232.07 41.5647C232.07 39.6392 232.835 37.7926 234.196 36.4311C235.558 35.0696 237.404 34.3047 239.33 34.3047C241.255 34.3047 243.102 35.0696 244.464 36.4311C245.825 37.7926 246.59 39.6392 246.59 41.5647H232.07Z"
    fill="#FF9D9D"
  />
  <path
    d="M162.43 108.885C161.43 107.885 159.06 110.965 157.76 111.045H157.07C156.9 111.045 156.38 110.525 155.86 110.525C155.535 110.578 155.217 110.665 154.91 110.785C154.48 110.785 153.96 110.275 153.44 110.275C153.1 110.275 152.44 110.785 152.15 110.785C151.86 110.785 150.94 110.445 150.33 110.615C149.47 110.785 149.33 111.135 148.52 111.825C145.52 114.335 145.58 118.225 144.37 119.685C141.52 123.495 131.76 128.595 121.99 135.335C117.41 138.445 102.9 146.655 102.9 146.655L96.8499 150.285C96.8499 150.285 83.37 124.185 80.17 144.835C80.17 144.835 81.0399 158.575 93.9999 171.455C99.6999 174.305 111.19 164.715 120.09 155.895L120.18 155.985L121.47 154.605C127.61 148.375 132.21 142.955 132.21 142.955L132.12 142.865C132.81 142.095 142.23 131.025 144.74 128.355C146.449 126.51 148.585 125.112 150.96 124.285C152.909 123.499 154.786 122.546 156.57 121.435C157.911 120.523 158.985 119.27 159.68 117.805C160.38 116.805 158.99 116.805 157.78 117.205C156.83 117.545 154.41 118.845 154.24 118.755C154.597 118.283 155.002 117.851 155.45 117.465C156.278 116.677 157.056 115.839 157.78 114.955C158.91 113.745 159.43 112.885 160.29 112.105C160.96 111.655 163.29 109.665 162.43 108.885Z"
    fill="#FBAD83"
  />
  <path
    d="M127.26 166.955C127.95 171.955 127.78 174.905 123.63 179.575C121.3 182.165 122.25 187.955 121.73 192.105C120.96 198.935 120.44 203.345 120.87 209.475C120.96 210.255 121.04 220.795 120.18 223.125C118.62 227.455 114.99 227.125 109.38 227.365C106.87 227.455 104.11 227.535 100.91 227.455C78.3599 227.105 72.0499 221.925 72.0499 221.925C72.8322 218.198 74.1812 214.613 76.0499 211.295C79.5899 204.895 82.1799 197.985 82.3499 193.295C83.5599 164.865 85.6399 148.615 90.4699 142.395C91.7581 140.44 93.4225 138.762 95.366 137.457C97.3095 136.152 99.4932 135.247 101.79 134.795C101.79 134.795 114.84 133.155 124 140.495C130 145.245 131.69 147.585 131.69 147.585L123.57 162.355L127.89 163.225C127.95 163.245 126.92 164.105 127.26 166.955Z"
    fill="#F071A9"
  />
  <path
    d="M131.67 147.605L154.74 168.605L185.67 168.085C187.43 166.97 189.316 166.071 191.29 165.405C193.161 165.074 195.088 165.314 196.82 166.095C196.9 168.255 193.28 167.995 193.28 167.995L196.47 168.255L203.99 168.605L200.19 171.025C200.19 171.025 195.44 174.215 193.19 174.395C191.63 174.565 185.93 173.445 185.93 173.445L155.09 180.445C153.847 180.721 152.545 180.502 151.46 179.835L123.63 162.375L131.67 147.605Z"
    fill="#FBAD83"
  />
  <path
    d="M56.67 280.075C56.2483 279.485 55.6913 279.004 55.0459 278.674C54.4004 278.343 53.6851 278.172 52.9599 278.175H-68.6101L-71.9001 263.955C-72.1984 262.53 -72.9814 261.254 -74.1156 260.342C-75.2497 259.43 -76.6649 258.94 -78.1201 258.955H-104.56C-105.133 258.955 -105.682 259.182 -106.087 259.587C-106.492 259.992 -106.72 260.542 -106.72 261.115C-106.72 261.688 -106.492 262.237 -106.087 262.642C-105.682 263.047 -105.133 263.275 -104.56 263.275H-78.1201C-77.6465 263.267 -77.1855 263.428 -76.8193 263.728C-76.453 264.028 -76.2053 264.449 -76.1201 264.915L-72.4901 280.815V280.955L-63.4201 320.795L-58.7901 341.265H-58.7101L-48.7701 379.115C-48.4135 380.432 -47.6322 381.595 -46.5474 382.423C-45.4625 383.251 -44.1348 383.698 -42.7701 383.695H37.5899C38.1628 383.695 38.7122 383.467 39.1173 383.062C39.5224 382.657 39.7499 382.108 39.7499 381.535C39.7499 380.962 39.5224 380.412 39.1173 380.007C38.7122 379.602 38.1628 379.375 37.5899 379.375H-42.7901C-43.2051 379.371 -43.6073 379.23 -43.9332 378.973C-44.2591 378.716 -44.4902 378.358 -44.5901 377.955L-54.1801 341.145H37.1399C38.175 341.142 39.1812 340.803 40.0071 340.179C40.833 339.555 41.4341 338.68 41.7199 337.685L57.45 284.195C57.6641 283.496 57.7051 282.756 57.5692 282.038C57.4333 281.32 57.1246 280.646 56.67 280.075ZM43.0199 318.075H24.0999L25.48 302.175H47.6899L43.0199 318.075ZM19.7799 318.075H-1.56006V302.175H21.2099L19.7799 318.075ZM-5.79006 302.205V318.105H-27.9201L-29.3001 302.205H-5.79006ZM-29.7201 297.885L-31.1001 282.415H-5.79006V297.885H-29.7201ZM-32.2301 318.105H-59.4501L-63.0801 302.205H-33.6201L-32.2301 318.105ZM-58.4901 322.425H-31.7901L-30.4901 336.855H-55.1301L-58.4901 322.425ZM-27.5601 322.425H-5.79006V336.855H-26.2801L-27.5601 322.425ZM-1.56006 322.425H19.4399L18.1499 336.855H-1.55006L-1.56006 322.425ZM-1.56006 297.885V282.415H22.9699L21.5899 297.885H-1.56006ZM-35.4301 282.495L-34.0501 297.955H-64.1201L-67.6601 282.485L-35.4301 282.495ZM37.6599 336.495C37.617 336.597 37.5448 336.685 37.4524 336.748C37.3599 336.81 37.2513 336.844 37.1399 336.845H22.3699L23.67 322.415H41.67L37.6599 336.495ZM53.2999 283.005L48.8899 297.955H25.8299L27.2099 282.495H52.9599C53.0267 282.496 53.0922 282.513 53.1512 282.545C53.2102 282.576 53.2611 282.62 53.2999 282.675C53.3256 282.728 53.3389 282.786 53.3389 282.845C53.3389 282.904 53.3256 282.962 53.2999 283.015V283.005Z"
    fill="url(#paint0_linear)"
  />
  <path
    d="M37.6599 381.535H-42.6901C-43.5798 381.538 -44.4453 381.246 -45.1498 380.702C-45.8544 380.159 -46.3576 379.396 -46.5801 378.535L-56.9501 339.015L-74.2301 263.575C-74.3916 262.868 -74.7862 262.236 -75.3503 261.781C-75.9144 261.326 -76.6152 261.073 -77.3401 261.065H-103.43"
    stroke="#737E9A"
    stroke-width="7.42"
    stroke-miterlimit="10"
    stroke-linecap="round"
  />
  <path
    d="M24.27 396.305C25.5698 396.305 26.8404 395.919 27.9211 395.197C29.0017 394.475 29.8438 393.448 30.3408 392.247C30.8378 391.046 30.9673 389.724 30.713 388.449C30.4587 387.175 29.8319 386.004 28.9121 385.086C27.9923 384.167 26.8207 383.542 25.5456 383.29C24.2704 383.037 22.9491 383.169 21.7488 383.668C20.5485 384.167 19.523 385.01 18.8023 386.092C18.0816 387.174 17.698 388.445 17.7 389.745C17.7026 391.486 18.396 393.154 19.6278 394.384C20.8596 395.614 22.5292 396.305 24.27 396.305Z"
    fill="#737E9A"
  />
  <path
    d="M24.2699 393.805C25.0758 393.807 25.864 393.569 26.5349 393.123C27.2057 392.677 27.7289 392.041 28.0382 391.297C28.3475 390.553 28.4289 389.734 28.2722 388.943C28.1155 388.153 27.7277 387.427 27.1578 386.857C26.588 386.287 25.8619 385.899 25.0715 385.743C24.2811 385.586 23.4619 385.667 22.7178 385.977C21.9737 386.286 21.3381 386.809 20.8917 387.48C20.4452 388.151 20.208 388.939 20.2099 389.745C20.2099 390.822 20.6377 391.854 21.3991 392.616C22.1605 393.377 23.1932 393.805 24.2699 393.805Z"
    fill="#9ABDE2"
  />
  <path
    d="M124.15 180.615C121.82 183.115 121.99 189.085 121.73 193.145C121.39 199.885 120.87 206.625 120.87 206.625C120.7 212.505 120.78 220.365 120 226.755C115.34 227.195 109.38 227.455 109.38 227.455V227.535C109.38 226.065 112.49 215.875 113.53 196.685C114.247 184.658 117.702 172.954 123.63 162.465L127.95 164.975C127.95 164.975 126.49 165.925 127.26 168.605C128.56 173.005 128.3 176.035 124.15 180.615Z"
    fill="#D36396"
  />
  <path
    d="M72.31 223.825C72.31 223.825 81.8099 230.645 110.16 229.095L112.66 252.945L118.71 303.235L121.04 383.695"
    stroke="#9764A7"
    stroke-width="0.53"
    stroke-miterlimit="10"
    stroke-linecap="round"
  />
  <path
    d="M76.9799 146.565C76.9799 146.565 77.75 169.295 94.9799 169.895C124.54 170.895 120.39 137.495 131.19 146.995C131.19 146.995 128.19 143.365 120.82 138.355C120.82 138.355 117.45 148.035 109.82 151.665C104.45 154.255 84.7499 156.325 76.9799 146.565Z"
    fill="#D36396"
  />
  <path
    d="M122.68 142.415C125.578 143.977 128.23 145.958 130.55 148.295L123.63 161.515"
    stroke="#F8BBD6"
    stroke-width="0.53"
    stroke-miterlimit="10"
    stroke-linecap="round"
  />
  <path
    d="M80.2099 231.335L84.0099 242.915L88.1599 244.995L93.4299 242.915L92.7399 232.465L80.2099 231.335Z"
    stroke="#9764A7"
    stroke-width="0.53"
    stroke-miterlimit="10"
    stroke-linecap="round"
  />
  <path
    d="M73.09 230.565L74.8199 230.475L75.0799 239.545L72.9999 240.495L72.0499 238.165L71.7099 230.385L73.09 230.565Z"
    stroke="#9764A7"
    stroke-width="0.53"
    stroke-miterlimit="10"
    stroke-linecap="round"
  />
  <path
    d="M94.2099 114.955C97.1499 130.165 108.99 128.355 118.66 127.485C126.27 126.015 125.66 112.625 126.44 102.165C126.27 99.6648 125.83 96.3748 125.49 94.0448C123.67 83.3248 107.34 85.7448 98.0999 90.1548C90.5399 93.8548 91.9199 103.445 94.2099 114.955Z"
    fill="#FCC197"
  />
  <path
    d="M126.31 114.675C126.65 114.675 126.92 112.005 126.92 108.675C126.92 105.345 126.65 102.675 126.31 102.675C125.97 102.675 125.71 105.345 125.71 108.675C125.71 112.005 125.98 114.675 126.31 114.675Z"
    stroke="white"
    stroke-width="1.02"
    stroke-miterlimit="10"
    stroke-linecap="round"
  />
  <path
    d="M125.28 109.495H113.78"
    stroke="white"
    stroke-width="1.53"
    stroke-miterlimit="10"
    stroke-linecap="round"
  />
  <path
    d="M83.03 167.825C96.5 174.655 114.22 165.745 118.88 154.515C123.63 143.105 119.66 129.365 115.94 122.625C114.3 119.685 110.85 111.225 115.25 107.765C118.25 105.345 124.84 102.925 125.45 98.3447C126.14 93.5047 125.02 91.6047 123.03 89.2747C116.89 82.0947 101.08 85.1247 93.48 93.6747C87.43 100.505 81.1199 111.735 77.3199 120.725C71.0999 135.335 71.88 146.655 72.4 151.235C73.26 157.885 74.9 163.765 83.03 167.825Z"
    fill="url(#paint1_linear)"
  />
  <path
    d="M73.2099 134.035C73.8199 134.035 69.9299 151.235 79.5199 161.035C86.1799 167.865 96.72 168.385 104.84 167.775C100.468 169.796 95.632 170.605 90.84 170.115C89.54 169.935 83.4099 169.335 78.7399 165.535C67.1299 156.245 72.8299 135.505 73.2099 134.035Z"
    fill="#633B2C"
  />
  <defs>
    <linearGradient
      id="paint0_linear"
      x1="-109.29"
      y1="265.025"
      x2="53.1899"
      y2="358.825"
      gradientUnits="userSpaceOnUse"
    >
      <stop stop-color="#00659C" />
      <stop offset="0.57" stop-color="#F1FAFE" />
      <stop offset="1" stop-color="#5F84B2" />
    </linearGradient>
    <linearGradient
      id="paint1_linear"
      x1="98.85"
      y1="85.2547"
      x2="98.85"
      y2="170.325"
      gradientUnits="userSpaceOnUse"
    >
      <stop stop-color="#CF8B4B" />
      <stop offset="1" stop-color="#703952" />
    </linearGradient>
  </defs>
</svg>
